<svg width="177" height="6131" viewBox="0 0 177 6131" fill="none" xmlns="http://www.w3.org/2000/svg">
<g clip-path="url(#clip0_790_487)">
<path d="M103.057 -0.283691V346.03C103.057 403.933 101.341 461.745 109.692 519.349C125.775 630.206 165.554 738.294 172.211 850.164C178.292 952.399 169.3 1056.17 166.368 1158.47C163.36 1263.72 164.522 1368.18 148.689 1472.84C132.4 1580.5 108.042 1687.62 102.786 1796.22C98.724 1880.16 97.3739 1964.15 98.7349 2048.2C100.179 2138.67 103.904 2228.99 113.363 2319.14C123.039 2411.42 135.777 2503.63 138.503 2596.31C140.599 2666.21 137.341 2736.19 133.844 2806.03C130.076 2882.7 131.867 2959.54 127.024 3036.13C119.542 3154.42 102.221 3272.1 92.4364 3390.24C84.6609 3484.19 86.1378 3578.43 89.1785 3672.52C95.1838 3860.12 127.849 4045.54 140.218 4232.74C151.751 4407.21 141.945 4581.89 129.522 4756.12C121.051 4874.86 102.959 4992.98 88.6681 5111.28C75.3543 5221.57 68.0349 5332.04 64.1038 5442.79C60.1509 5555.43 54.0478 5669.77 64.549 5782.22C75.4086 5898.79 102.167 6013.95 104.284 6131.1" stroke="#020202" stroke-width="5.11905"/>
<path d="M93.3487 -0.283691V174.909C93.3487 289.176 85.7469 405.615 98.0943 519.485C110.192 630.477 141.185 739.787 145.724 851.395C149.873 953.63 148.407 1056.28 150.068 1158.58C151.817 1263.93 152.772 1367.78 137.33 1472.52C121.442 1580.3 97.7685 1687.59 93.0554 1796.31C89.4066 1880.65 87.5388 1965.07 88.7116 2049.47C90.0148 2139.51 94.5541 2229.37 103.437 2319.12C112.581 2411.41 124.07 2503.74 126.47 2596.42C128.262 2666.3 125.645 2736.23 123.006 2806.07C120.107 2882.68 122.344 2959.57 116.686 3036.07C108.02 3154.4 88.2664 3271.92 76.9399 3390.03C67.9264 3484.01 69.7291 3578.21 73.5082 3672.35C81.0448 3860.08 115.513 4045.45 129.609 4232.72C142.771 4407.6 129.196 4581.86 117.316 4756.46C109.225 4875.23 91.9152 4993.4 78.2213 5111.77C65.483 5221.85 58.2614 5332.25 52.5601 5442.72C46.7394 5555.44 40.8101 5669.06 48.2163 5781.8C55.8832 5898.43 75.7019 6014.25 79.8502 6131.09" stroke="#020202" stroke-width="5.11905"/>
<path d="M83.5095 -0.283691V174.61C83.5095 288.977 77.7974 404.539 87.104 518.698C96.15 629.654 119.324 739.652 123.049 850.943C126.524 954.77 130.249 1058.36 135.744 1162.17C141.174 1265.46 141.337 1366.97 126.611 1469.78C111.18 1577.6 87.5167 1685.03 83.3792 1793.75C80.1213 1879.95 77.591 1966.21 78.7421 2052.44C81.1638 2233.07 110.235 2412.21 114.904 2592.63C116.751 2663.86 114.47 2735.19 112.461 2806.41C110.289 2882.85 112.885 2959.67 106.662 3035.96C97.0405 3154.06 75.2237 3271.23 62.7026 3389.11C52.5706 3484.6 54.7642 3580.32 59.3144 3676C68.1432 3861.86 103.535 4045.29 119.042 4230.61C133.789 4407.17 117.011 4582.55 105.489 4758.78C97.7138 4877.56 80.8706 4995.76 67.622 5114.17C55.3724 5223.85 48.5091 5333.91 41.3418 5443.9C34.0116 5556.49 28.571 5669.33 33.5229 5782.09C38.6378 5898.59 52.1145 6014.69 58.9452 6131.12" stroke="#020202" stroke-width="5.11905"/>
<path d="M73.8445 -0.283691V174.61C73.8445 289.194 70.2282 404.258 76.2553 518.761C82.1086 629.826 96.7147 740.502 99.2667 851.702C101.656 955.747 110.789 1058.61 120.019 1162.36C129.207 1265.5 128.631 1366.83 115.252 1469.79C101.211 1577.69 79.4914 1685.11 73.6707 1793.68C69.059 1879.63 67.5532 1965.62 69.1532 2051.65C72.6499 2232.38 97.9853 2412.01 102.405 2592.59C104.154 2663.81 102.405 2735.14 101.515 2806.37C100.537 2882.79 103.448 2959.68 96.769 3035.93C86.4199 3154.19 62.8872 3271.34 49.4105 3389.34C38.4966 3484.8 41.0269 3580.45 46.0766 3676.14C55.8502 3862.07 89.9492 4045.51 108.096 4230.74C125.373 4407.16 108.096 4582.91 95.0641 4759.1C86.2461 4877.7 70.9993 4995.89 58.2393 5114.22C46.4024 5224.06 37.9753 5334.16 29.6895 5444.22C12.4011 5674.02 22.3267 5901.63 41.7545 6131.09" stroke="#020202" stroke-width="5.11905"/>
<path d="M64.0931 -0.283203V174.611C64.0931 289.349 63.0072 404.132 64.4189 518.87C65.8198 630.152 70.5763 741.434 70.7283 852.716C70.8695 957.104 87.8647 1059.15 101.808 1162.67C115.687 1265.71 114.927 1366.65 103.09 1469.82C90.699 1577.8 71.2496 1685.31 63.8759 1793.71C58.0443 1879.4 57.295 1965.17 59.5321 2050.96C64.1148 2231.75 85.1824 2411.95 88.9507 2592.65C90.4384 2663.88 89.6348 2735.18 90.0366 2806.43C90.5144 2882.84 93.9352 2959.8 86.5833 3036.03C75.1699 3154.45 49.6608 3271.6 34.8918 3389.72C22.9462 3485.19 25.7806 3580.68 31.3841 3676.4C36.6836 3766.88 45.3604 3857.35 56.4697 3947.5C68.1437 4042.15 85.7905 4136.23 96.6501 4230.96C116.979 4407.26 98.8763 4583.45 84.205 4759.52C65.1465 4988.09 37.5089 5216.15 17.3319 5444.67C-2.74748 5672.59 -2.93209 5903.37 21.7408 6131.12" stroke="#020202" stroke-width="5.11905"/>
</g>
</svg>
